<?xml version="1.0" encoding="UTF-8"?>
<!DOCTYPE svg PUBLIC "-//W3C//DTD SVG 1.1//EN" "http://www.w3.org/Graphics/SVG/1.1/DTD/svg11.dtd">
<!-- Creator: CorelDRAW 2021 (64-Bit) -->
<svg xmlns="http://www.w3.org/2000/svg" xml:space="preserve" width="122.767mm" height="122.767mm" version="1.1" style="shape-rendering:geometricPrecision; text-rendering:geometricPrecision; image-rendering:optimizeQuality; fill-rule:evenodd; clip-rule:evenodd"
viewBox="0 0 12276.66 12276.66"
 xmlns:xlink="http://www.w3.org/1999/xlink"
 xmlns:xodm="http://www.corel.com/coreldraw/odm/2003">
 <defs>
  <style type="text/css">
   <![CDATA[
    .str0 {stroke:#FEFEFE;stroke-width:7.62;stroke-miterlimit:22.9256}
    .str2 {stroke:#B2B09C;stroke-width:7.62;stroke-miterlimit:22.9256}
    .str3 {stroke:#B2AD81;stroke-width:7.62;stroke-miterlimit:22.9256}
    .str23 {stroke:#FFF383;stroke-width:7.62;stroke-miterlimit:22.9256}
    .str1 {stroke:#FFED00;stroke-width:7.62;stroke-miterlimit:22.9256}
    .str26 {stroke:#D5BECA;stroke-width:7.62;stroke-miterlimit:22.9256}
    .str18 {stroke:#FECC00;stroke-width:7.62;stroke-miterlimit:22.9256}
    .str24 {stroke:#F5B2B6;stroke-width:7.62;stroke-miterlimit:22.9256}
    .str16 {stroke:#F08365;stroke-width:7.62;stroke-miterlimit:22.9256}
    .str19 {stroke:#F08143;stroke-width:7.62;stroke-miterlimit:22.9256}
    .str14 {stroke:#EF7F1A;stroke-width:7.62;stroke-miterlimit:22.9256}
    .str20 {stroke:#E51A4B;stroke-width:7.62;stroke-miterlimit:22.9256}
    .str22 {stroke:#E31E24;stroke-width:7.62;stroke-miterlimit:22.9256}
    .str12 {stroke:#BBC274;stroke-width:7.62;stroke-miterlimit:22.9256}
    .str25 {stroke:#D2CDE7;stroke-width:7.62;stroke-miterlimit:22.9256}
    .str13 {stroke:#CFDA60;stroke-width:7.62;stroke-miterlimit:22.9256}
    .str21 {stroke:#A8D4AF;stroke-width:7.62;stroke-miterlimit:22.9256}
    .str17 {stroke:#B0CB1F;stroke-width:7.62;stroke-miterlimit:22.9256}
    .str15 {stroke:#A6C724;stroke-width:7.62;stroke-miterlimit:22.9256}
    .str27 {stroke:#A6C724;stroke-width:7.62;stroke-miterlimit:22.9256}
    .str10 {stroke:#61A375;stroke-width:7.62;stroke-miterlimit:22.9256}
    .str6 {stroke:#47BCCB;stroke-width:7.62;stroke-miterlimit:22.9256}
    .str11 {stroke:#53B36F;stroke-width:7.62;stroke-miterlimit:22.9256}
    .str4 {stroke:#714F99;stroke-width:7.62;stroke-miterlimit:22.9256}
    .str8 {stroke:#3CA5DD;stroke-width:7.62;stroke-miterlimit:22.9256}
    .str5 {stroke:#4868AE;stroke-width:7.62;stroke-miterlimit:22.9256}
    .str7 {stroke:#065C84;stroke-width:7.62;stroke-miterlimit:22.9256}
    .str9 {stroke:#00A0E3;stroke-width:7.62;stroke-miterlimit:22.9256}
    .fil1 {fill:#FEFEFE}
    .fil3 {fill:#B2B09C}
    .fil4 {fill:#B2AD81}
    .fil26 {fill:#FFF383}
    .fil2 {fill:#FFED00}
    .fil17 {fill:#D5BECA}
    .fil20 {fill:#FECC00}
    .fil27 {fill:#F5B2B6}
    .fil18 {fill:#F08365}
    .fil21 {fill:#F08143}
    .fil15 {fill:#EF7F1A}
    .fil22 {fill:#E51A4B}
    .fil25 {fill:#E31E24}
    .fil24 {fill:#97A59A}
    .fil13 {fill:#BBC274}
    .fil28 {fill:#D2CDE7}
    .fil14 {fill:#CFDA60}
    .fil23 {fill:#A8D4AF}
    .fil19 {fill:#B0CB1F}
    .fil16 {fill:#A6C724}
    .fil11 {fill:#61A375}
    .fil7 {fill:#47BCCB}
    .fil12 {fill:#53B36F}
    .fil5 {fill:#714F99}
    .fil9 {fill:#3CA5DD}
    .fil6 {fill:#4868AE}
    .fil8 {fill:#065C84}
    .fil10 {fill:#00A0E3}
    .fil29 {fill:#A6C724;fill-rule:nonzero}
    .fil30 {fill:#A6C724;fill-rule:nonzero}
    .fil0 {fill:#474746;fill-rule:nonzero}
   ]]>
  </style>
 </defs>
 <g id="Livello_x0020_1">
  <metadata id="CorelCorpID_0Corel-Layer"/>
  <g id="_2336876482000">
   <path class="fil0" d="M12276.67 6138.32c0,3390.11 -2748.22,6138.33 -6138.34,6138.33 -3390.11,0 -6138.33,-2748.22 -6138.33,-6138.33 0,-3390.11 2748.22,-6138.33 6138.33,-6138.33 3390.12,0 6138.34,2748.22 6138.34,6138.33z"/>
   <polygon class="fil1 str0" points="9547.05,5048.12 9547.05,3184.6 9794.31,3184.6 9794.31,4829.57 10710.53,4829.57 10710.53,5048.12 "/>
   <path class="fil1 str0" d="M7617.11 5048.12l714.85 -1863.52 271.17 0 758.68 1863.52 -280.64 0 -215.63 -564.72 -784.72 0 -202.16 564.72 -261.55 0zm536.12 -765.16l0 0 635.07 0 -194.3 -516.69c-58.57,-157.03 -102.84,-286.7 -133.64,-389.09 -25.56,121.47 -59.87,240.67 -102.8,358.77l-204.33 547.01z"/>
   <path class="fil1 str0" d="M7162.42 3184.6l247.29 0 0 1076.18c0,187.48 -21.22,336.24 -63.32,446.41 -42.51,109.77 -118.89,199.55 -229.06,268.58 -110.59,68.91 -255.08,103.63 -434.67,103.63 -173.94,0 -316.67,-29.9 -427.29,-90.26 -111.04,-60.22 -190,-146.97 -237.3,-261.07 -47.27,-114.1 -71.15,-269.89 -71.15,-467.29l0 -1076.18 247.26 0 0 1075.77c0,161.78 15.23,281.53 45.17,357.87 29.9,76.83 81.09,136.22 154.4,177.42 72.87,41.69 162.27,62.57 267.65,62.57 180.46,0 309.3,-41.27 386.1,-123.27 76.79,-82.4 114.92,-240.33 114.92,-474.59l0 -1075.77z"/>
   <path class="fil1 str0" d="M4124.99 4449.5l231.61 -20.81c10.89,93.71 36.48,170.47 76.79,230.83 40.38,59.87 102.84,108.38 187.41,145.72 84.58,36.93 180.01,55.54 285.84,55.54 94.19,0 177.05,-13.92 249.05,-42.03 72.04,-28.25 125.33,-66.91 160.47,-115.9 35.18,-49.05 52.95,-102.39 52.95,-159.57 0,-58.22 -16.91,-108.94 -50.78,-152.76 -33.79,-43.41 -89.78,-79.79 -167.84,-109.76 -49.89,-19.09 -160.54,-49.4 -331.9,-90.68 -171.33,-41.2 -291.08,-79.85 -359.6,-116.23 -88.92,-46.85 -154.86,-105.01 -198.23,-173.98 -43.82,-68.97 -65.53,-146.62 -65.53,-232.06 0,-94.53 26.91,-182.66 80.24,-264.17 53.36,-82 131.05,-144.01 233.82,-186.59 102.39,-42.51 216.49,-63.73 341.85,-63.73 137.95,0 259.87,22.12 365.25,66.83 105.46,44.17 186.52,109.76 243.4,196.51 56.81,86.34 87.16,184.38 91.5,293.66l-236.85 18.19c-12.57,-117.55 -55.5,-206.43 -128.84,-266.3 -73.32,-60.36 -181.77,-90.27 -324.91,-90.27 -149.21,0 -258.11,27.36 -326.22,82 -68.11,54.64 -102.35,120.65 -102.35,197.82 0,66.83 24.25,121.88 72.41,165.29 47.75,42.93 171.36,87.64 371.8,132.71 200.4,45.61 337.89,85.09 412.51,118.85 108.01,49.89 188.28,112.79 239.88,189.62 51.65,76.28 77.25,164.4 77.25,264.17 0,99.36 -28.18,192.17 -85.07,279.81 -56.8,87.57 -137.94,155.72 -244.22,204.29 -106.28,48.58 -225.55,72.9 -358.7,72.9 -168.36,0 -309.34,-24.66 -422.99,-73.72 -114.07,-48.99 -203.02,-122.79 -267.65,-221.73 -65.08,-98.46 -98.91,-209.94 -102.35,-334.45z"/>
   <polygon class="fil1 str0" points="3524.13,5048.12 3524.13,3184.6 3771.38,3184.6 3771.38,5048.12 "/>
   <path class="fil1 str0" d="M2546.2 5043.16l720.13 -1863.66 -267.23 0 -484.11 1354.34c-38.62,108.52 -71.59,210.01 -97.6,305.03 -28.66,-101.98 -62.05,-203.54 -100.25,-305.03l-502.33 -1354.34 -251.63 0 726.64 1863.66 256.38 0z"/>
   <polygon class="fil2 str1" points="2416.18,4954.76 2290.34,4932.36 2335.81,4882 "/>
   <polygon class="fil3 str2" points="2982.01,3528.56 2976.43,3243.03 2894.19,3472.95 "/>
   <polygon class="fil4 str3" points="2510.1,4918.03 2509.55,5000.1 2556.57,5000.17 "/>
   <polygon class="fil5 str4" points="2851.4,4062.48 2714.77,4299.71 2833.49,4299.16 2863.39,4222.33 2856.68,4063.58 "/>
   <polygon class="fil6 str5" points="2787.12,4419.05 2715.29,4301.02 2832.45,4302.33 "/>
   <polygon class="fil7 str6" points="2714.84,4299.71 2643.15,4175.34 2683.42,4062.69 2849.68,4062.82 "/>
   <polygon class="fil8 str7" points="2716.15,4299.71 2579.52,4536.94 2741.02,4538.25 2787.29,4419.25 "/>
   <polygon class="fil9 str8" points="2598.74,4299.57 2714.77,4299.36 2643.49,4174.31 "/>
   <polygon class="fil10 str9" points="2580.38,4538.18 2539.07,4466.45 2598.15,4301.16 2715.29,4301.22 "/>
   <polygon class="fil11 str10" points="2950.62,3996.54 2861.77,4054.14 2861.77,3753.32 3043.4,3756.49 "/>
   <polygon class="fil12 str11" points="2793.53,3753.32 2861.77,3564.94 2861.77,3753.32 "/>
   <polygon class="fil13 str12" points="2718.77,3963.74 2862.32,4054.14 2862.32,3753.32 2794.11,3753.32 2793.53,3753.32 "/>
   <polygon class="fil14 str13" points="3110.16,3583.89 2894.19,3472.95 2861.77,3566.18 2861.77,3753.32 3045.95,3749.8 "/>
   <polygon class="fil15 str14" points="2869.56,4055.86 2928.57,4053.59 2946.45,4007.36 "/>
   <polygon class="fil16 str15" points="3100.97,3607.45 2982.01,3595.39 2984.07,3221.46 2999.1,3179.5 3266.85,3179.5 3114.99,3571.14 "/>
   <polygon class="fil17" points="2522.09,4766.45 2656.65,4769.69 2679.56,4710.78 2582.07,4532.39 2522.09,4529.43 "/>
   <polygon class="fil18 str16" points="2508.45,4936.22 2457.18,4764.38 2618.24,4689.69 2655.62,4760.04 2626.95,4834.11 2599.64,4904.81 "/>
   <polygon class="fil19 str17" points="2450.77,4889.65 2330.54,5001.41 2422.59,5041.09 "/>
   <polygon class="fil20 str18" points="2926.92,4057.86 2861.77,4054.14 2859.81,4231.56 "/>
   <polygon class="fil21 str19" points="2861.64,4059.31 2717.08,3968.36 2686.07,4055.25 "/>
   <polygon class="fil22 str20" points="2419.7,4994.93 2568.56,4856.57 2488.88,4771.69 "/>
   <polygon class="fil23 str21" points="2582.07,4532.39 2539.07,4466.45 2516.37,4529.91 "/>
   <polygon class="fil24" points="2581.07,4536.94 2744.95,4541.07 2679.56,4710.78 "/>
   <path class="fil1 str0" d="M8878.36 5540.01l517.38 0 0 212.63c117.31,-98.53 224.31,-166.67 319.6,-205.53 95.36,-38.31 193.24,-57.74 293.04,-57.74 204.88,0 379.31,71.31 521.94,214.01 119.95,121.89 180.21,301.51 180.21,538.81l0 1363.43 -513.49 0 0 -903.16c0,-246.4 -10.99,-409.83 -33.01,-490.17 -22.08,-81.03 -60.94,-142.63 -115.41,-184.8 -55.12,-42.09 -123.19,-63.45 -203.57,-63.45 -105.08,0 -195.17,34.93 -270.37,105 -75.21,70.08 -127.12,167.23 -156.27,290.35 -14.92,64.98 -22.67,204.3 -22.67,418.93l0 827.3 -517.38 0 0 -2065.61z"/>
   <path class="fil1 str0" d="M7359.93 5489.37c195.17,0 378.65,48.64 550.49,145.93 172.43,97.29 305.99,228.83 402.6,395.5 96.6,167.23 144.59,346.85 144.59,539.98 0,194.58 -48.65,376.07 -145.25,545.29 -97.22,169.23 -229.51,301.52 -396.77,396.81 -167.95,95.29 -352.02,143.25 -553.69,143.25 -296.94,0 -550.43,-105.01 -759.89,-315.09 -210.01,-210.63 -315.05,-466.12 -315.05,-766.33 0,-322.18 118.65,-590.63 355.94,-805.19 208.12,-186.72 446.69,-280.15 717.03,-280.15zm7.82 486.31l0 0c-161.44,0 -295.66,55.74 -402.66,167.22 -106.94,112.24 -160.78,254.8 -160.78,429.26 0,178.87 53.19,324.12 158.85,434.98 105.66,110.93 239.91,166.68 402.63,166.68 162.06,0 296.9,-56.37 405.24,-168.68 107.6,-112.03 161.37,-256.72 161.37,-432.98 0,-177.08 -53.12,-320.32 -158.82,-431.25 -105.66,-110.11 -241.15,-165.23 -405.83,-165.23z"/>
   <path class="fil1 str0" d="M5965.36 6718.58l-1662.95 0c23.94,147.24 88.13,264.65 191.89,352.16 103.77,86.81 236.65,130.36 397.43,130.36 193.2,0 358.53,-68.15 497.3,-204.29l434.36 205.46c-108.29,154.34 -238.58,268.51 -389.61,342.99 -151.76,73.94 -331.35,110.87 -539.47,110.87 -322.87,0 -586.08,-101.7 -789.03,-306 -202.91,-203.6 -304.68,-459.02 -304.68,-765.7 0,-314.47 101.77,-575.68 304.68,-783.21 202.95,-208.15 457.06,-311.85 763.78,-311.85 324.77,0 589.35,103.7 792.92,310.61 203.54,207.46 305.34,480.45 305.34,820.83l-1.96 97.77zm-515.39 -404.52l0 0c-34.38,-112.73 -101.8,-204.85 -202.26,-275.47 -101.22,-70.7 -217.87,-105.77 -351.47,-105.77 -144.59,0 -270.95,39.62 -380.55,119.41 -68.07,49.19 -131.63,136.7 -189.96,261.83l1124.24 0z"/>
   <path class="fil1 str0" d="M1563.18 5540.01l517.39 0 0 212.63c117.3,-98.53 224.31,-166.67 319.59,-205.53 95.33,-38.31 193.24,-57.74 293.08,-57.74 204.81,0 379.23,71.31 521.9,214.01 119.96,121.89 180.21,301.51 180.21,538.81l0 1363.43 -513.49 0 0 -903.16c0,-246.4 -10.96,-409.83 -33.04,-490.17 -22.05,-81.03 -60.94,-142.63 -115.38,-184.8 -55.12,-42.09 -123.23,-63.45 -203.57,-63.45 -105.04,0 -195.2,34.93 -270.37,105 -75.2,70.08 -127.12,167.23 -156.27,290.35 -14.88,64.98 -22.66,204.3 -22.66,418.93l0 827.3 -517.39 0 0 -2065.61z"/>
   <polygon class="fil11 str10" points="2881.79,7133.23 3191.43,6937.41 3191.43,7270.21 2881.79,7270.21 "/>
   <polygon class="fil12 str11" points="3395.28,7474.16 3191.43,7603.07 3191.43,7270.21 3395.28,7270.21 "/>
   <polygon class="fil13 str12" points="3395.28,7066.74 3190.81,6937.41 3190.81,7270.21 3395.28,7270.21 "/>
   <polygon class="fil25 str22" points="3192.81,7605.62 2881.79,7410.7 2881.79,7605.62 "/>
   <polygon class="fil2 str1" points="3192.81,7605.62 3395.28,7478.91 3395.28,7605.62 "/>
   <polygon class="fil16 str15" points="2881.79,7407.19 3191.43,7603.07 3191.43,7270.21 2881.79,7270.21 "/>
   <polygon class="fil5 str4" points="2888.3,6930.45 3039.51,6668.01 2881.79,6668.21 2881.79,6919.08 "/>
   <polygon class="fil6 str5" points="2887.71,6404.25 3038.92,6666.7 2881.79,6666.56 2881.79,6414.65 "/>
   <polygon class="fil7 str6" points="3039.4,6668.01 3190.61,6930.45 2890.16,6930.18 "/>
   <polygon class="fil8 str7" points="3037.95,6668.01 3189.16,6405.63 2888.72,6405.9 "/>
   <polygon class="fil22 str20" points="3129.11,5838.7 3204.63,6050.44 3325.73,6006.62 "/>
   <polygon class="fil4 str3" points="3167.73,5964.17 3084.6,5927.79 3063.93,5975.4 "/>
   <polygon class="fil26 str23" points="2959.24,6238.61 3040.19,6016.06 3182.72,6054.85 "/>
   <polygon class="fil9 str8" points="3188.71,6930.45 3339.92,6668.01 3039.51,6668.35 "/>
   <polygon class="fil10 str9" points="3188.16,6404.25 3339.33,6666.7 3038.92,6666.35 "/>
   <polygon class="fil15 str14" points="3182.82,6935.48 2881.83,6935.48 2881.79,7125.86 "/>
   <polygon class="fil27 str24" points="3339.92,6668.01 3395.28,6668.01 3395.28,7054.61 3190.61,6930.45 "/>
   <polygon class="fil28 str25" points="2971.4,6237.23 3188.33,6063.87 3188.16,6404.25 "/>
   <path class="fil21 str19" d="M3188.16 6404.25l0.17 -340.38c64.67,0 129.33,0 194,0 13.26,47.89 13.92,95.71 12.54,145.11l0.41 196.79 -207.12 -1.52z"/>
   <polygon class="fil17 str26" points="3395.28,6405.77 3197.46,6404.39 3339.33,6666.7 3395.28,6668.01 "/>
   <polygon class="fil18 str16" points="3005.68,5816.31 3116.47,5816.31 3116.47,5711.16 3005.68,5711.16 "/>
   <polygon class="fil19 str17" points="3222.51,5916.35 3161.56,5745.27 3063.8,5780.69 "/>
   <path class="fil29 str15" d="M2097.03 8174.34c-54.53,-87.71 -142.28,-100.53 -226.79,-101.63 -87.75,0 -226.82,32.11 -226.82,151.93 0,95.22 102.69,117.68 228.96,141.25 144.41,27.76 294.21,53.46 294.21,215.04 -1.07,169.02 -171.19,209.67 -296.35,209.67 -116.62,0 -249.29,-48.16 -307.06,-162.61l51.33 -25.7c46.03,90.95 163.71,135.87 255.73,135.87 91.99,0 238.57,-25.63 238.57,-158.33 1.07,-112.31 -123.02,-136.91 -246.08,-160.48 -136.94,-26.73 -277.09,-54.57 -277.09,-192.58 -3.2,-158.33 161.54,-207.53 284.6,-207.53 106.97,0 200.06,17.09 273.89,127.26l-47.1 27.84z"/>
   <path class="fil29 str15" d="M2411.46 8090.9l0 159.44 179.77 0 0 43.82 -179.77 0 0 322.05c0,71.65 14.99,121.95 97.36,121.95 25.67,0 54.57,-8.54 81.31,-21.36l18.19 42.79c-33.18,16.06 -66.32,26.73 -99.5,26.73 -112.34,0 -148.72,-66.35 -148.72,-170.11l0 -322.05 -112.31 0 0 -43.82 112.31 0 0 -154.07 51.36 -5.37z"/>
   <path class="fil29 str15" d="M3220.23 8250.34c0,176.52 0,351.95 0,528.47l-52.43 0 0 -112.3c-51.33,82.4 -130.5,120.92 -216.11,120.92 -147.66,0 -268.55,-111.28 -268.55,-272.85 0,-161.58 120.89,-270.72 268.55,-270.72 85.61,0 172.25,39.62 216.11,122.03l0 -115.55 52.43 0zm-484.65 264.24l0 0c0,132.7 96.29,221.45 216.11,221.45 294.21,0 294.21,-441.87 0,-441.87 -119.82,0 -216.11,87.78 -216.11,220.42z"/>
   <path class="fil29 str15" d="M4145.59 8778.81l0 -316.67c0,-101.63 -68.49,-173.29 -169.05,-173.29 -100.57,0 -170.12,74.9 -170.12,176.53l0 313.43 -52.4 0 0 -313.43c0,-101.63 -69.56,-175.49 -170.12,-175.49 -100.6,0 -169.05,73.86 -169.05,175.49l0 313.43 -52.44 0 0 -528.47 49.23 0 1.07 87.71c36.38,-69.52 103.77,-98.39 172.26,-98.39 80.23,0 164.74,36.38 195.78,130.5 32.08,-86.68 114.48,-130.5 195.79,-130.5 129.46,0 221.48,90.88 221.48,222.48l0 316.67 -52.43 0z"/>
   <path class="fil29 str15" d="M4334.79 8999.23l0 -748.89 51.37 0 0 125.13c41.72,-80.21 126.23,-132.64 228.96,-132.64 143.35,5.37 256.76,101.63 256.76,271.75 0,177.63 -119.82,273.88 -268.54,273.88 -89.89,0 -173.32,-43.89 -218.25,-131.6l0 342.37 -50.3 0zm484.66 -484.65l0 0c0,-148.69 -96.29,-221.45 -216.11,-221.45 -123.03,0 -213.97,93.08 -213.97,222.55 0,129.4 93.08,222.48 213.97,222.48 119.82,0 216.11,-74.89 216.11,-223.58z"/>
   <path class="fil29 str15" d="M5508.37 8250.34c0,176.52 0,351.95 0,528.47l-52.44 0 0 -112.3c-51.37,82.4 -130.53,120.92 -216.11,120.92 -147.66,0 -268.54,-111.28 -268.54,-272.85 0,-161.58 120.88,-270.72 268.54,-270.72 85.58,0 172.25,39.62 216.11,122.03l0 -115.55 52.44 0zm-484.7 264.24l0 0c0,132.7 96.33,221.45 216.15,221.45 294.21,0 294.21,-441.87 0,-441.87 -119.82,0 -216.15,87.78 -216.15,220.42z"/>
   <path class="fil29 str15" d="M6436.85 8210.72c0,-117.69 -92.02,-138.01 -191.51,-138.01 -143.35,0 -211.84,66.35 -210.77,150.82 1.07,114.52 123.06,149.87 212.9,149.87 111.28,0 206.51,0 317.78,0l0 45.95 -68.49 0 0 163.71c0,80.21 18.19,151.94 93.09,150.83l0 44.92c-60.98,8.62 -109.14,-32.04 -125.16,-95.22 -54.57,88.82 -140.18,104.87 -220.42,104.87 -181.86,0 -277.09,-80.2 -277.09,-208.63 0,-93.09 75.97,-158.34 150.86,-182.94 -78.1,-23.49 -138.01,-88.81 -138.01,-172.25 0,-115.55 95.19,-198.99 266.38,-198.99 119.82,0 240.74,31 240.74,185.07l-50.3 0zm12.85 208.63l0 0 -205.43 0c-147.65,0 -222.52,83.44 -222.52,160.48 0,96.32 70.59,158.33 221.46,158.33 85.57,0 206.49,-29.9 206.49,-155.1l0 -163.71z"/>
   <polygon class="fil29 str15" points="7019.76,8778.81 7019.76,8029.92 7076.47,8029.92 7076.47,8778.81 "/>
   <path class="fil29 str15" d="M7282.9 8250.34l0 94.12c40.65,-72.76 114.48,-102.74 188.31,-103.77 141.21,0 238.57,86.68 238.57,233.24l0 304.88 -52.4 0 0 -303.85c0,-119.75 -73.83,-183.97 -188.31,-182.94 -109.14,1.11 -185.1,83.45 -185.1,192.58l0 294.21 -52.44 0 0 -528.47 51.37 0z"/>
   <path class="fil29 str15" d="M8209.36 8346.59c-53.51,-47.06 -105.94,-55.6 -164.78,-55.6 -82.38,-1.1 -161.54,29.9 -159.41,97.36 2.13,70.62 94.15,84.47 160.47,96.25 94.16,16.06 223.62,32.11 218.28,155.17 -3.2,116.58 -124.12,147.66 -217.21,147.66 -93.09,0 -185.07,-35.35 -231.1,-105.97l38.52 -34.18c43.89,63.12 123.06,89.85 193.65,89.85 64.22,0 161.58,-17.16 164.78,-100.6 2.13,-75.93 -85.58,-90.95 -172.26,-104.8 -102.7,-17.15 -204.36,-36.38 -205.43,-142.35 -1.07,-103.76 102.73,-148.69 209.71,-147.66 77.03,0 144.45,21.43 196.85,70.63l-32.07 34.24z"/>
   <path class="fil29 str15" d="M8350.47 8514.58c0,-158.34 119.81,-272.86 268.54,-272.86 148.73,0 281.4,90.96 261.07,297.46l-476.11 0c10.71,124.09 105.93,195.82 215.04,195.82 69.56,0 150.86,-27.84 190.45,-80.28l37.44 29.98c-51.33,67.38 -143.35,101.62 -227.89,101.62 -148.73,0 -268.54,-103.76 -268.54,-271.74zm482.52 -21.43l0 0c-1.07,-130.5 -86.65,-203.26 -213.98,-203.26 -109.11,0 -203.26,73.86 -215.04,203.26l429.02 0z"/>
   <path class="fil30 str27" d="M9440.6 8228.91l34.24 29.97 -51.36 59.95c37.44,40.58 65.25,94.12 65.25,179.69 0,91.99 -54.58,185.07 -142.29,224.69 93.09,33.14 144.46,98.39 144.46,189.35 0,142.28 -111.32,210.77 -251.46,210.77 -140.15,0 -250.36,-77.04 -250.36,-210.77l52.44 0c0,108.1 92.01,159.43 197.92,159.43 105.93,0 200.09,-47.06 200.09,-159.43 0,-113.42 -101.63,-158.34 -200.09,-158.34 -153,0 -248.22,-114.45 -248.22,-255.7 0,-164.74 111.27,-257.83 248.22,-257.83 53.5,0 109.14,19.23 149.79,48.16l51.37 -59.94zm-396.95 269.61l0 0c0,109.14 74.9,203.26 195.79,203.26 109.14,0 197.92,-94.12 197.92,-203.26 0,-133.74 -88.78,-205.39 -197.92,-205.39 -108.04,0 -195.79,67.38 -195.79,205.39z"/>
   <path class="fil29 str15" d="M9648.06 8250.34l0 94.12c40.65,-72.76 114.48,-102.74 188.31,-103.77 141.21,0 238.57,86.68 238.57,233.24l0 304.88 -52.43 0 0 -303.85c0,-119.75 -73.8,-183.97 -188.28,-182.94 -109.14,1.11 -185.1,83.45 -185.1,192.58l0 294.21 -52.44 0 0 -528.47 51.37 0z"/>
   <path class="fil29 str15" d="M10181.84 8514.58c0,-158.34 119.82,-272.86 268.55,-272.86 148.69,0 281.36,90.96 261.04,297.46l-476.12 0c10.72,124.09 105.94,195.82 215.08,195.82 69.52,0 150.82,-27.84 190.41,-80.28l37.45 29.98c-51.33,67.38 -143.35,101.62 -227.86,101.62 -148.73,0 -268.55,-103.76 -268.55,-271.74zm482.52 -21.43l0 0c-1.06,-130.5 -86.68,-203.26 -213.97,-203.26 -109.14,0 -203.3,73.86 -215.08,203.26l429.05 0z"/>
  </g>
 </g>
</svg>
